# xmcd
#
# Track frame offsets:
#        150
#        21013
#        32480
#        49010
#        57545
#        68105
#        88270
#        107590
#        128500
#        149300
#        163703
#        170903
#        189703
#        201685
#        214740
#        236273
#        252151
#        262343
#        277498
#        285761
#
# Disc length: 4025 seconds
#
# Revision: 0
# Processed by: cddbd v1.5.1PL2 Copyright (c) Steve Scherf et al.
# Submitted via: ExactAudioCopy v0.95a3
#
DISCID=370fb714
DTITLE=Shpongle - Nothing Lasts... But Nothing Is Lost
DYEAR=2005
DGENRE=Tribal
TTITLE0=Botanical Dimensions
TTITLE1=Outer Shpongolit
TTITLE2=Levitation Nation
TTITLE3=Periscopes Of Consciousness
TTITLE4=Schmaltz Herring
TTITLE5=Nothing Lasts...
TTITLE6=Shnitzled In The Negev
TTITLE7=But Nothing Is Lost
TTITLE8=When Shall I Be Free
TTITLE9=Circuits Of The Imagination
TTITLE10=Linguistic Mystic
TTITLE11=The Stamen Of The Shamen
TTITLE12=Invocation
TTITLE13=Mentalism
TTITLE14=Molecular Superstructure
TTITLE15=Connoisseur Of Hallucinations
TTITLE16=Exhalation
TTITLE17=Turn Up The Silence
TTITLE18=Falling Awake
TTITLE19=The Nebbish Route
EXTD=
EXTT0=
EXTT1=
EXTT2=
EXTT3=
EXTT4=
EXTT5=
EXTT6=
EXTT7=
EXTT8=
EXTT9=
EXTT10=
EXTT11=
EXTT12=
EXTT13=
EXTT14=
EXTT15=
EXTT16=
EXTT17=
EXTT18=
EXTT19=
PLAYORDER=
